STARTFONT 2.1
FONT -Sinclair-ZXSpectrum-Medium-R-Normal--8-80-75-75-C-80-ISO8859-1
SIZE 8 75 75
FONTBOUNDINGBOX 8 8 0 -2
COMMENT "ZX Spectrum 48K Character Set"
COMMENT "Extracted on 2025-08-25 18:31:19"
COMMENT "Original character set from Sinclair ZX Spectrum 48K ROM"
STARTPROPERTIES 7
FOUNDRY "Sinclair"
FAMILY_NAME "ZX Spectrum"
WEIGHT_NAME "Medium"
SLANT "R"
SETWIDTH_NAME "Normal"
PIXEL_SIZE 8
POINT_SIZE 80
ENDPROPERTIES
CHARS 96
STARTCHAR space
ENCODING 32
SWIDTH 640 0
DWIDTH 8 0
BBX 8 8 0 -2
BITMAP
00
00
00
00
00
00
00
00
ENDCHAR
STARTCHAR exclam
ENCODING 33
SWIDTH 640 0
DWIDTH 8 0
BBX 8 8 0 -2
BITMAP
00
10
10
10
10
00
10
00
ENDCHAR
STARTCHAR quotedbl
ENCODING 34
SWIDTH 640 0
DWIDTH 8 0
BBX 8 8 0 -2
BITMAP
00
24
24
00
00
00
00
00
ENDCHAR
STARTCHAR numbersign
ENCODING 35
SWIDTH 640 0
DWIDTH 8 0
BBX 8 8 0 -2
BITMAP
00
24
7E
24
24
7E
24
00
ENDCHAR
STARTCHAR dollar
ENCODING 36
SWIDTH 640 0
DWIDTH 8 0
BBX 8 8 0 -2
BITMAP
00
08
3E
28
3E
0A
3E
08
ENDCHAR
STARTCHAR percent
ENCODING 37
SWIDTH 640 0
DWIDTH 8 0
BBX 8 8 0 -2
BITMAP
00
62
64
08
10
26
46
00
ENDCHAR
STARTCHAR ampersand
ENCODING 38
SWIDTH 640 0
DWIDTH 8 0
BBX 8 8 0 -2
BITMAP
00
10
28
10
2A
44
3A
00
ENDCHAR
STARTCHAR quotesingle
ENCODING 39
SWIDTH 640 0
DWIDTH 8 0
BBX 8 8 0 -2
BITMAP
00
08
10
00
00
00
00
00
ENDCHAR
STARTCHAR parenleft
ENCODING 40
SWIDTH 640 0
DWIDTH 8 0
BBX 8 8 0 -2
BITMAP
00
04
08
08
08
08
04
00
ENDCHAR
STARTCHAR parenright
ENCODING 41
SWIDTH 640 0
DWIDTH 8 0
BBX 8 8 0 -2
BITMAP
00
20
10
10
10
10
20
00
ENDCHAR
STARTCHAR asterisk
ENCODING 42
SWIDTH 640 0
DWIDTH 8 0
BBX 8 8 0 -2
BITMAP
00
00
14
08
3E
08
14
00
ENDCHAR
STARTCHAR plus
ENCODING 43
SWIDTH 640 0
DWIDTH 8 0
BBX 8 8 0 -2
BITMAP
00
00
08
08
3E
08
08
00
ENDCHAR
STARTCHAR comma
ENCODING 44
SWIDTH 640 0
DWIDTH 8 0
BBX 8 8 0 -2
BITMAP
00
00
00
00
00
08
08
10
ENDCHAR
STARTCHAR hyphen
ENCODING 45
SWIDTH 640 0
DWIDTH 8 0
BBX 8 8 0 -2
BITMAP
00
00
00
00
3E
00
00
00
ENDCHAR
STARTCHAR period
ENCODING 46
SWIDTH 640 0
DWIDTH 8 0
BBX 8 8 0 -2
BITMAP
00
00
00
00
00
18
18
00
ENDCHAR
STARTCHAR slash
ENCODING 47
SWIDTH 640 0
DWIDTH 8 0
BBX 8 8 0 -2
BITMAP
00
00
02
04
08
10
20
00
ENDCHAR
STARTCHAR zero
ENCODING 48
SWIDTH 640 0
DWIDTH 8 0
BBX 8 8 0 -2
BITMAP
00
3C
46
4A
52
62
3C
00
ENDCHAR
STARTCHAR one
ENCODING 49
SWIDTH 640 0
DWIDTH 8 0
BBX 8 8 0 -2
BITMAP
00
18
28
08
08
08
3E
00
ENDCHAR
STARTCHAR two
ENCODING 50
SWIDTH 640 0
DWIDTH 8 0
BBX 8 8 0 -2
BITMAP
00
3C
42
02
3C
40
7E
00
ENDCHAR
STARTCHAR three
ENCODING 51
SWIDTH 640 0
DWIDTH 8 0
BBX 8 8 0 -2
BITMAP
00
3C
42
0C
02
42
3C
00
ENDCHAR
STARTCHAR four
ENCODING 52
SWIDTH 640 0
DWIDTH 8 0
BBX 8 8 0 -2
BITMAP
00
08
18
28
48
7E
08
00
ENDCHAR
STARTCHAR five
ENCODING 53
SWIDTH 640 0
DWIDTH 8 0
BBX 8 8 0 -2
BITMAP
00
7E
40
7C
02
42
3C
00
ENDCHAR
STARTCHAR six
ENCODING 54
SWIDTH 640 0
DWIDTH 8 0
BBX 8 8 0 -2
BITMAP
00
3C
40
7C
42
42
3C
00
ENDCHAR
STARTCHAR seven
ENCODING 55
SWIDTH 640 0
DWIDTH 8 0
BBX 8 8 0 -2
BITMAP
00
7E
02
04
08
10
10
00
ENDCHAR
STARTCHAR eight
ENCODING 56
SWIDTH 640 0
DWIDTH 8 0
BBX 8 8 0 -2
BITMAP
00
3C
42
3C
42
42
3C
00
ENDCHAR
STARTCHAR nine
ENCODING 57
SWIDTH 640 0
DWIDTH 8 0
BBX 8 8 0 -2
BITMAP
00
3C
42
42
3E
02
3C
00
ENDCHAR
STARTCHAR colon
ENCODING 58
SWIDTH 640 0
DWIDTH 8 0
BBX 8 8 0 -2
BITMAP
00
00
00
10
00
00
10
00
ENDCHAR
STARTCHAR semicolon
ENCODING 59
SWIDTH 640 0
DWIDTH 8 0
BBX 8 8 0 -2
BITMAP
00
00
10
00
00
10
10
20
ENDCHAR
STARTCHAR less
ENCODING 60
SWIDTH 640 0
DWIDTH 8 0
BBX 8 8 0 -2
BITMAP
00
00
04
08
10
08
04
00
ENDCHAR
STARTCHAR equal
ENCODING 61
SWIDTH 640 0
DWIDTH 8 0
BBX 8 8 0 -2
BITMAP
00
00
00
3E
00
3E
00
00
ENDCHAR
STARTCHAR greater
ENCODING 62
SWIDTH 640 0
DWIDTH 8 0
BBX 8 8 0 -2
BITMAP
00
00
10
08
04
08
10
00
ENDCHAR
STARTCHAR question
ENCODING 63
SWIDTH 640 0
DWIDTH 8 0
BBX 8 8 0 -2
BITMAP
00
3C
42
04
08
00
08
00
ENDCHAR
STARTCHAR at
ENCODING 64
SWIDTH 640 0
DWIDTH 8 0
BBX 8 8 0 -2
BITMAP
00
3C
4A
56
5E
40
3C
00
ENDCHAR
STARTCHAR A
ENCODING 65
SWIDTH 640 0
DWIDTH 8 0
BBX 8 8 0 -2
BITMAP
00
3C
42
42
7E
42
42
00
ENDCHAR
STARTCHAR B
ENCODING 66
SWIDTH 640 0
DWIDTH 8 0
BBX 8 8 0 -2
BITMAP
00
7C
42
7C
42
42
7C
00
ENDCHAR
STARTCHAR C
ENCODING 67
SWIDTH 640 0
DWIDTH 8 0
BBX 8 8 0 -2
BITMAP
00
3C
42
40
40
42
3C
00
ENDCHAR
STARTCHAR D
ENCODING 68
SWIDTH 640 0
DWIDTH 8 0
BBX 8 8 0 -2
BITMAP
00
78
44
42
42
44
78
00
ENDCHAR
STARTCHAR E
ENCODING 69
SWIDTH 640 0
DWIDTH 8 0
BBX 8 8 0 -2
BITMAP
00
7E
40
7C
40
40
7E
00
ENDCHAR
STARTCHAR F
ENCODING 70
SWIDTH 640 0
DWIDTH 8 0
BBX 8 8 0 -2
BITMAP
00
7E
40
7C
40
40
40
00
ENDCHAR
STARTCHAR G
ENCODING 71
SWIDTH 640 0
DWIDTH 8 0
BBX 8 8 0 -2
BITMAP
00
3C
42
40
4E
42
3C
00
ENDCHAR
STARTCHAR H
ENCODING 72
SWIDTH 640 0
DWIDTH 8 0
BBX 8 8 0 -2
BITMAP
00
42
42
7E
42
42
42
00
ENDCHAR
STARTCHAR I
ENCODING 73
SWIDTH 640 0
DWIDTH 8 0
BBX 8 8 0 -2
BITMAP
00
3E
08
08
08
08
3E
00
ENDCHAR
STARTCHAR J
ENCODING 74
SWIDTH 640 0
DWIDTH 8 0
BBX 8 8 0 -2
BITMAP
00
02
02
02
42
42
3C
00
ENDCHAR
STARTCHAR K
ENCODING 75
SWIDTH 640 0
DWIDTH 8 0
BBX 8 8 0 -2
BITMAP
00
44
48
70
48
44
42
00
ENDCHAR
STARTCHAR L
ENCODING 76
SWIDTH 640 0
DWIDTH 8 0
BBX 8 8 0 -2
BITMAP
00
40
40
40
40
40
7E
00
ENDCHAR
STARTCHAR M
ENCODING 77
SWIDTH 640 0
DWIDTH 8 0
BBX 8 8 0 -2
BITMAP
00
42
66
5A
42
42
42
00
ENDCHAR
STARTCHAR N
ENCODING 78
SWIDTH 640 0
DWIDTH 8 0
BBX 8 8 0 -2
BITMAP
00
42
62
52
4A
46
42
00
ENDCHAR
STARTCHAR O
ENCODING 79
SWIDTH 640 0
DWIDTH 8 0
BBX 8 8 0 -2
BITMAP
00
3C
42
42
42
42
3C
00
ENDCHAR
STARTCHAR P
ENCODING 80
SWIDTH 640 0
DWIDTH 8 0
BBX 8 8 0 -2
BITMAP
00
7C
42
42
7C
40
40
00
ENDCHAR
STARTCHAR Q
ENCODING 81
SWIDTH 640 0
DWIDTH 8 0
BBX 8 8 0 -2
BITMAP
00
3C
42
42
52
4A
3C
00
ENDCHAR
STARTCHAR R
ENCODING 82
SWIDTH 640 0
DWIDTH 8 0
BBX 8 8 0 -2
BITMAP
00
7C
42
42
7C
44
42
00
ENDCHAR
STARTCHAR S
ENCODING 83
SWIDTH 640 0
DWIDTH 8 0
BBX 8 8 0 -2
BITMAP
00
3C
40
3C
02
42
3C
00
ENDCHAR
STARTCHAR T
ENCODING 84
SWIDTH 640 0
DWIDTH 8 0
BBX 8 8 0 -2
BITMAP
00
FE
10
10
10
10
10
00
ENDCHAR
STARTCHAR U
ENCODING 85
SWIDTH 640 0
DWIDTH 8 0
BBX 8 8 0 -2
BITMAP
00
42
42
42
42
42
3C
00
ENDCHAR
STARTCHAR V
ENCODING 86
SWIDTH 640 0
DWIDTH 8 0
BBX 8 8 0 -2
BITMAP
00
42
42
42
42
24
18
00
ENDCHAR
STARTCHAR W
ENCODING 87
SWIDTH 640 0
DWIDTH 8 0
BBX 8 8 0 -2
BITMAP
00
42
42
42
42
5A
24
00
ENDCHAR
STARTCHAR X
ENCODING 88
SWIDTH 640 0
DWIDTH 8 0
BBX 8 8 0 -2
BITMAP
00
42
24
18
18
24
42
00
ENDCHAR
STARTCHAR Y
ENCODING 89
SWIDTH 640 0
DWIDTH 8 0
BBX 8 8 0 -2
BITMAP
00
82
44
28
10
10
10
00
ENDCHAR
STARTCHAR Z
ENCODING 90
SWIDTH 640 0
DWIDTH 8 0
BBX 8 8 0 -2
BITMAP
00
7E
04
08
10
20
7E
00
ENDCHAR
STARTCHAR bracketleft
ENCODING 91
SWIDTH 640 0
DWIDTH 8 0
BBX 8 8 0 -2
BITMAP
24
00
3C
42
42
7E
42
00
ENDCHAR
STARTCHAR backslash
ENCODING 92
SWIDTH 640 0
DWIDTH 8 0
BBX 8 8 0 -2
BITMAP
24
00
3C
42
42
42
3C
00
ENDCHAR
STARTCHAR bracketright
ENCODING 93
SWIDTH 640 0
DWIDTH 8 0
BBX 8 8 0 -2
BITMAP
24
00
42
42
42
42
3C
00
ENDCHAR
STARTCHAR asciicircum
ENCODING 94
SWIDTH 640 0
DWIDTH 8 0
BBX 8 8 0 -2
BITMAP
00
10
38
54
10
10
10
00
ENDCHAR
STARTCHAR underscore
ENCODING 95
SWIDTH 640 0
DWIDTH 8 0
BBX 8 8 0 -2
BITMAP
00
00
00
00
00
00
00
FF
ENDCHAR
STARTCHAR grave
ENCODING 96
SWIDTH 640 0
DWIDTH 8 0
BBX 8 8 0 -2
BITMAP
00
1C
22
78
20
20
7E
00
ENDCHAR
STARTCHAR a
ENCODING 97
SWIDTH 640 0
DWIDTH 8 0
BBX 8 8 0 -2
BITMAP
00
00
38
04
3C
44
3C
00
ENDCHAR
STARTCHAR b
ENCODING 98
SWIDTH 640 0
DWIDTH 8 0
BBX 8 8 0 -2
BITMAP
00
20
20
3C
22
22
3C
00
ENDCHAR
STARTCHAR c
ENCODING 99
SWIDTH 640 0
DWIDTH 8 0
BBX 8 8 0 -2
BITMAP
00
00
1C
20
20
20
1C
00
ENDCHAR
STARTCHAR d
ENCODING 100
SWIDTH 640 0
DWIDTH 8 0
BBX 8 8 0 -2
BITMAP
00
04
04
3C
44
44
3C
00
ENDCHAR
STARTCHAR e
ENCODING 101
SWIDTH 640 0
DWIDTH 8 0
BBX 8 8 0 -2
BITMAP
00
00
38
44
78
40
3C
00
ENDCHAR
STARTCHAR f
ENCODING 102
SWIDTH 640 0
DWIDTH 8 0
BBX 8 8 0 -2
BITMAP
00
0C
10
18
10
10
10
00
ENDCHAR
STARTCHAR g
ENCODING 103
SWIDTH 640 0
DWIDTH 8 0
BBX 8 8 0 -2
BITMAP
00
00
3C
44
44
3C
04
38
ENDCHAR
STARTCHAR h
ENCODING 104
SWIDTH 640 0
DWIDTH 8 0
BBX 8 8 0 -2
BITMAP
00
40
40
78
44
44
44
00
ENDCHAR
STARTCHAR i
ENCODING 105
SWIDTH 640 0
DWIDTH 8 0
BBX 8 8 0 -2
BITMAP
00
10
00
30
10
10
38
00
ENDCHAR
STARTCHAR j
ENCODING 106
SWIDTH 640 0
DWIDTH 8 0
BBX 8 8 0 -2
BITMAP
00
04
00
04
04
04
24
18
ENDCHAR
STARTCHAR k
ENCODING 107
SWIDTH 640 0
DWIDTH 8 0
BBX 8 8 0 -2
BITMAP
00
20
28
30
30
28
24
00
ENDCHAR
STARTCHAR l
ENCODING 108
SWIDTH 640 0
DWIDTH 8 0
BBX 8 8 0 -2
BITMAP
00
10
10
10
10
10
0C
00
ENDCHAR
STARTCHAR m
ENCODING 109
SWIDTH 640 0
DWIDTH 8 0
BBX 8 8 0 -2
BITMAP
00
00
68
54
54
54
54
00
ENDCHAR
STARTCHAR n
ENCODING 110
SWIDTH 640 0
DWIDTH 8 0
BBX 8 8 0 -2
BITMAP
00
00
78
44
44
44
44
00
ENDCHAR
STARTCHAR o
ENCODING 111
SWIDTH 640 0
DWIDTH 8 0
BBX 8 8 0 -2
BITMAP
00
00
38
44
44
44
38
00
ENDCHAR
STARTCHAR p
ENCODING 112
SWIDTH 640 0
DWIDTH 8 0
BBX 8 8 0 -2
BITMAP
00
00
78
44
44
78
40
40
ENDCHAR
STARTCHAR q
ENCODING 113
SWIDTH 640 0
DWIDTH 8 0
BBX 8 8 0 -2
BITMAP
00
00
3C
44
44
3C
04
06
ENDCHAR
STARTCHAR r
ENCODING 114
SWIDTH 640 0
DWIDTH 8 0
BBX 8 8 0 -2
BITMAP
00
00
1C
20
20
20
20
00
ENDCHAR
STARTCHAR s
ENCODING 115
SWIDTH 640 0
DWIDTH 8 0
BBX 8 8 0 -2
BITMAP
00
00
38
40
38
04
78
00
ENDCHAR
STARTCHAR t
ENCODING 116
SWIDTH 640 0
DWIDTH 8 0
BBX 8 8 0 -2
BITMAP
00
10
38
10
10
10
0C
00
ENDCHAR
STARTCHAR u
ENCODING 117
SWIDTH 640 0
DWIDTH 8 0
BBX 8 8 0 -2
BITMAP
00
00
44
44
44
44
38
00
ENDCHAR
STARTCHAR v
ENCODING 118
SWIDTH 640 0
DWIDTH 8 0
BBX 8 8 0 -2
BITMAP
00
00
44
44
28
28
10
00
ENDCHAR
STARTCHAR w
ENCODING 119
SWIDTH 640 0
DWIDTH 8 0
BBX 8 8 0 -2
BITMAP
00
00
44
54
54
54
28
00
ENDCHAR
STARTCHAR x
ENCODING 120
SWIDTH 640 0
DWIDTH 8 0
BBX 8 8 0 -2
BITMAP
00
00
44
28
10
28
44
00
ENDCHAR
STARTCHAR y
ENCODING 121
SWIDTH 640 0
DWIDTH 8 0
BBX 8 8 0 -2
BITMAP
00
00
44
44
44
3C
04
38
ENDCHAR
STARTCHAR z
ENCODING 122
SWIDTH 640 0
DWIDTH 8 0
BBX 8 8 0 -2
BITMAP
00
00
7C
08
10
20
7C
00
ENDCHAR
STARTCHAR braceleft
ENCODING 123
SWIDTH 640 0
DWIDTH 8 0
BBX 8 8 0 -2
BITMAP
24
00
38
04
3C
44
3C
00
ENDCHAR
STARTCHAR bar
ENCODING 124
SWIDTH 640 0
DWIDTH 8 0
BBX 8 8 0 -2
BITMAP
24
00
38
44
44
44
38
00
ENDCHAR
STARTCHAR braceright
ENCODING 125
SWIDTH 640 0
DWIDTH 8 0
BBX 8 8 0 -2
BITMAP
24
00
44
44
44
44
38
00
ENDCHAR
STARTCHAR asciitilde
ENCODING 126
SWIDTH 640 0
DWIDTH 8 0
BBX 8 8 0 -2
BITMAP
00
3C
42
4C
42
42
5C
40
ENDCHAR
STARTCHAR DEL
ENCODING 127
SWIDTH 640 0
DWIDTH 8 0
BBX 8 8 0 -2
BITMAP
3C
42
99
A1
A1
99
42
3C
ENDCHAR
ENDFONT
